<?xml version="1.0" encoding="utf-8"?>
<!-- Generator: Adobe Illustrator 15.0.0, SVG Export Plug-In . SVG Version: 6.00 Build 0)  -->
<!DOCTYPE svg PUBLIC "-//W3C//DTD SVG 1.1//EN" "http://www.w3.org/Graphics/SVG/1.1/DTD/svg11.dtd">
<svg version="1.1" id="Capa_1" xmlns="http://www.w3.org/2000/svg" xmlns:xlink="http://www.w3.org/1999/xlink" x="0px" y="0px"
	 width="233.334px" height="109px" viewBox="0 0 233.334 109" enable-background="new 0 0 233.334 109" xml:space="preserve">
<g>
	<path d="M152.516,45.099c-0.331-0.221-0.883-0.405-1.655-0.405c-1.435,0-2.502,0.699-3.312,1.729
		c-0.146,0.147-0.221,0.074-0.221-0.11l0.11-0.81c0.037-0.331-0.146-0.552-0.478-0.552h-5.629c-0.331,0-0.552,0.221-0.589,0.552
		l-2.207,17.99c-0.037,0.331,0.146,0.552,0.441,0.552h5.665c0.295,0,0.552-0.221,0.589-0.552l1.141-9.345
		c0.147-1.14,1.066-1.913,1.949-2.207c0.736-0.221,1.582-0.184,2.134-0.037c0.331,0.074,0.552,0.037,0.662-0.368l1.582-5.739
		C152.773,45.466,152.773,45.246,152.516,45.099z"/>
	<path d="M169.804,44.951h-5.629c-0.331,0-0.552,0.221-0.589,0.552l-0.036,0.258c-0.037,0.184-0.147,0.221-0.258,0.073
		c-0.92-0.993-2.134-1.177-3.385-1.177c-3.164,0-5.224,2.354-6.327,5.959c-0.368,1.141-0.552,1.876-0.736,3.495
		c-0.184,1.655-0.258,2.833-0.184,3.973c0.258,3.716,1.692,6.291,4.819,6.291c1.251,0,2.538-0.258,3.679-1.251
		c0.147-0.147,0.258-0.074,0.258,0.11l-0.037,0.294c-0.073,0.331,0.147,0.552,0.441,0.552h5.666c0.294,0,0.552-0.221,0.588-0.552
		l2.208-18.027C170.318,45.172,170.135,44.951,169.804,44.951z M162.482,54.443l-0.184,1.361c-0.037,0.294-0.11,0.588-0.184,0.883
		c-0.258,1.03-0.847,1.766-1.619,1.766s-1.214-0.735-1.178-1.766c0-0.736,0.11-1.472,0.185-2.208c0.11-0.772,0.11-1.508,0.368-2.244
		c0.294-0.993,0.883-1.655,1.581-1.655c0.773,0,1.251,0.662,1.215,1.655C162.667,52.971,162.557,53.67,162.482,54.443z"/>
	<path d="M182.897,44.657c-1.361,0-2.648,0.441-3.752,1.766c-0.185,0.184-0.331,0.184-0.295,0l0.11-0.92
		c0.037-0.331-0.146-0.552-0.478-0.552h-5.629c-0.331,0-0.552,0.221-0.589,0.552l-2.207,18.027
		c-0.074,0.331,0.146,0.552,0.441,0.552h5.665c0.295,0,0.552-0.221,0.589-0.552l1.361-11.147c0.147-1.104,0.772-1.803,1.655-1.803
		c0.81,0,1.288,0.699,1.141,1.803L179.55,63.53c-0.037,0.331,0.147,0.552,0.441,0.552h5.666c0.294,0,0.552-0.221,0.588-0.552
		l1.509-12.141C188.269,47.159,186.466,44.657,182.897,44.657z"/>
	<path d="M184.773,38.513c-0.367,0.405-0.772,0.552-1.177,0.552c-0.552,0-1.067-0.331-1.398-0.588
		c-0.698-0.479-1.397-0.846-2.354-0.846c-1.435,0-2.942,0.957-3.862,2.943c-0.11,0.294-0.073,0.515,0.147,0.699l1.803,1.472
		c0.257,0.221,0.515,0.147,0.735-0.184c0.368-0.441,0.735-0.625,1.214-0.625c0.368,0,0.626,0.184,1.288,0.552
		c0.662,0.405,1.25,0.736,2.097,0.736c1.324,0,2.943-0.736,4.12-2.722c0.185-0.331,0.11-0.589-0.11-0.773l-1.766-1.398
		C185.252,38.108,185.031,38.219,184.773,38.513z"/>
	<path d="M206.183,44.951h-5.629c-0.331,0-0.552,0.221-0.589,0.552l-0.036,0.258c-0.037,0.184-0.147,0.221-0.258,0.073
		c-0.92-0.993-2.134-1.177-3.385-1.177c-3.164,0-5.224,2.354-6.327,5.959c-0.368,1.141-0.552,1.876-0.736,3.495
		c-0.184,1.655-0.258,2.833-0.184,3.973c0.258,3.716,1.692,6.291,4.819,6.291c1.251,0,2.538-0.258,3.679-1.251
		c0.147-0.147,0.258-0.074,0.258,0.11l-0.037,0.294c-0.073,0.331,0.147,0.552,0.441,0.552h5.666c0.294,0,0.552-0.221,0.588-0.552
		l2.208-18.027C206.697,45.172,206.514,44.951,206.183,44.951z M198.861,54.443l-0.184,1.361c-0.037,0.294-0.11,0.588-0.184,0.883
		c-0.258,1.03-0.847,1.766-1.619,1.766s-1.214-0.735-1.178-1.766c0-0.736,0.11-1.472,0.185-2.208c0.11-0.772,0.11-1.508,0.368-2.244
		c0.294-0.993,0.883-1.655,1.581-1.655c0.773,0,1.251,0.662,1.215,1.655C199.046,52.971,198.936,53.67,198.861,54.443z"/>
	<path d="M224.979,45.613c0.295-0.404,0.147-0.662-0.294-0.662h-6.07c-0.258,0-0.515,0.11-0.662,0.368l-2.833,4.01
		c-0.11,0.184-0.257,0.147-0.221-0.074l1.251-10.374c0.037-0.332-0.147-0.552-0.441-0.552h-5.665c-0.295,0-0.553,0.221-0.589,0.552
		l-3.017,24.648c-0.074,0.331,0.146,0.552,0.441,0.552h5.665c0.295,0,0.552-0.221,0.589-0.552l0.552-4.488
		c0-0.074,0.037-0.147,0.11-0.257l0.772-1.288c0.11-0.184,0.258-0.184,0.295,0l1.545,6.144c0.073,0.294,0.257,0.441,0.552,0.441
		h5.85c0.404,0,0.588-0.257,0.478-0.662l-3.458-10.963c0-0.11,0-0.221,0.074-0.294L224.979,45.613z"/>
	<path d="M128.349,52.235c-0.258,0.736-0.258,1.472-0.368,2.244c-0.074,0.736-0.185,1.472-0.185,2.208
		c-0.036,1.03,0.405,1.766,1.178,1.766s1.361-0.735,1.619-1.766c0.073-0.294,0.146-0.589,0.184-0.883l0.184-1.361
		c0.074-0.772,0.185-1.472,0.185-2.208c0.036-0.993-0.441-1.655-1.215-1.655C129.231,50.58,128.643,51.242,128.349,52.235z"/>
	<path d="M138.9,77.005c1.102-2.866,3.877-4.459,3.415-7.257c-0.527-3.199-5.204-3.396-7.345-5.667h-4.673
		c-0.294,0-0.515-0.221-0.441-0.552l0.037-0.294c0-0.184-0.11-0.257-0.258-0.11c-1.141,0.993-2.428,1.251-3.679,1.251
		c-3.127,0-4.562-2.575-4.819-6.291c-0.073-1.141,0-2.318,0.184-3.973c0.185-1.619,0.368-2.354,0.736-3.495
		c1.104-3.605,3.163-5.959,6.327-5.959c1.251,0,2.465,0.184,3.385,1.177c0.11,0.147,0.221,0.111,0.258-0.073l0.036-0.258
		c0.037-0.331,0.258-0.552,0.589-0.552h5.629c0.1,0,0.181,0.025,0.251,0.062c1.223-5.663,2.912-11.074,6.771-15.391
		c5.378-6.019,21.135-14.615,31.161-7.684c2.896,2.001,7.743,10.005,13.66,4.268c-1.252-4.724-5.679-6.273-11.953-5.976
		c-12.485-9.354-42.614-13.597-56.487-2.698c-0.153-5.451-4.61-9.826-10.098-9.826c-5.081,0-9.275,3.75-9.994,8.631
		c-17.992-1.1-27.175,6.611-35.261,15.418C51.296,19.981,34,33.768,24.925,42.428c-4.19,3.999-10.05,9.941-13.179,7.009
		c-3.751-5.567,1.957-17.108,5.922-24.511c-2.012,3.008-5.675,7.976-7.683,13.232c-1.963,5.139-4.69,14.797,0,16.648
		c9.682,2.548,22.879-23.532,43.985-22.964c5.34,0.144,6.959,1.682,9.618,3.91c-1.517,2.63-2.523,5.793-3.083,9.198h5.532
		c0.331,0,0.515,0.221,0.479,0.552l-0.11,0.846c0,0.184,0.11,0.258,0.257,0.074c1.141-1.288,2.575-1.766,3.973-1.766
		c2.17,0,3.642,0.956,4.304,2.648c0.037,0.184,0.184,0.11,0.368-0.11c1.324-1.95,3.127-2.538,4.672-2.538
		c3.679,0,5.224,2.501,4.709,6.732L83.181,63.53c-0.037,0.331-0.294,0.552-0.588,0.552h-5.666c-0.294,0-0.479-0.221-0.441-0.552
		l1.361-11.147c0.147-1.104-0.294-1.803-1.104-1.803c-0.809,0-1.435,0.699-1.582,1.803L73.8,63.53
		c-0.037,0.331-0.294,0.552-0.589,0.552h-5.666c-0.294,0-0.478-0.221-0.441-0.552l1.361-11.147c0.147-1.104-0.331-1.803-1.177-1.803
		c-0.662,0-1.251,0.478-1.508,1.214c-0.037,0.11-0.074,0.221-0.074,0.294L64.309,63.53c-0.037,0.331-0.294,0.552-0.589,0.552H61.74
		c0.913,3.162,2.167,6.119,3.738,8.654c1.474,2.379,5.482,5.337,5.549,7.257c0.104,2.877-3.809,3.042-3.415,5.55
		c3.369,2.504,7.021,8.418,6.403,15.794c1.622,1.589,2.834-0.023,4.695-0.426c1.93,2.405,5.808,2.015,7.684-0.427
		c-0.519-4.73-6.237-4.027-9.819-2.562c0.693-5.425-3.317-8.299-2.561-12.379c7.769-0.7,11.598,3.995,19.635,4.695
		c15.448,1.348,25.806-6.348,31.589-13.232c3.414-4.064,5.655-10.167,13.233-6.83c0.992,3.071-2.904,4.717-2.989,8.11
		c-0.097,1.947,2.348,1.352,3.416,2.135c-0.254,3.042,1.094,5.188,2.987,5.122C146.621,85.376,144.212,76.546,138.9,77.005z
		 M129.885,16.953c3.692,0,6.684,2.993,6.684,6.685c0,3.691-2.991,6.684-6.684,6.684c-3.691,0-6.685-2.992-6.685-6.684
		C123.2,19.946,126.193,16.953,129.885,16.953z M111.993,13.21c0.609,0,1.196,0.086,1.76,0.232c-3.028,0.782-5.27,3.524-5.27,6.797
		c0,3.273,2.241,6.016,5.27,6.798c-0.563,0.146-1.15,0.23-1.76,0.23c-3.881,0-7.028-3.146-7.028-7.028
		C104.965,16.358,108.112,13.21,111.993,13.21z M100.615,64.082H94.95c-0.294,0-0.479-0.221-0.442-0.552l0.074-0.699
		c0.037-0.184-0.074-0.221-0.257-0.073c-0.994,1.177-2.354,1.619-3.937,1.619c-3.017,0-5.261-1.987-4.709-6.254l1.545-12.619
		c0.037-0.331,0.258-0.552,0.589-0.552h5.628c0.332,0,0.515,0.221,0.479,0.552l-1.361,11.11c-0.147,1.141,0.331,1.839,1.141,1.839
		c0.883,0,1.508-0.699,1.655-1.839l1.361-11.11c0.037-0.331,0.294-0.552,0.589-0.552h5.628c0.331,0,0.515,0.221,0.479,0.552
		l-2.208,18.027C101.167,63.861,100.909,64.082,100.615,64.082z M119.89,51.316c-0.037,0.257-0.295,0.405-0.589,0.405h-5.188
		c-0.331,0-0.515-0.111-0.515-0.294l0.037-0.294c0.11-0.736-0.368-1.141-1.215-1.141c-0.772,0-1.36,0.441-1.435,0.994
		c-0.147,1.25,2.317,1.25,4.305,1.95c2.391,0.846,4.524,2.207,4.157,5.445c-0.479,3.863-3.974,5.997-8.646,5.997
		c-5.003,0-7.836-2.392-7.395-5.997l0.037-0.221c0.037-0.331,0.294-0.552,0.588-0.552h5.372c0.294,0,0.515,0.074,0.515,0.221
		l-0.037,0.221c-0.11,0.809,0.625,1.25,1.472,1.25c0.772,0,1.251-0.331,1.324-0.809c0.147-1.251-2.686-1.03-4.966-2.097
		c-1.692-0.736-3.532-2.207-3.164-5.371c0.515-3.937,3.863-6.364,8.388-6.364C117.646,44.657,120.367,47.306,119.89,51.316z"/>
	<circle cx="128.824" cy="21.31" r="2.933"/>
</g>
</svg>
